<svg width="24" height="24" xmlns="http://www.w3.org/2000/svg">
  <rect width="24" height="24" stroke="none" fill="ghostwhite"/>
  <path d="M0,23 4,22 8,20 12,17 16,12 20,8 22,5 24,3"
        stroke="#444" stroke-width="2" fill="none"
        stroke-linejoin="round" stroke-linecap="round"/>
  <path d="M0,24 0,23 4,22 8,20 12,17 16,12 20,8 22,5 24,3 24,24"
        stroke="none" fill="darkseagreen"
        stroke-linejoin="round"/>
  <path d="M3,13 3,3 8,3 M3,8 7,8
            M9,13 9,8
            M9,10 q2,-4 3,-1
            M12,13 12,13"
        stroke="#444" stroke-width="1" fill="none"
        stroke-linejoin="round" stroke-linecap="round"/>
  <rect width="8" height="6" x="15" y="17"
        stroke="none" fill="red"/>
  <g transform="translate(16,17) scale(0.1875)">
    <rect width="32" height="32" stroke="none" fill="none"/>
    <path d="M13,26 13,19 6,19 6,13 13,13 13,6 19,6 19,13 26,13 26,19 19,19 19,26 z"
          stroke="none" fill="white"/>
  </g>
</svg>
