<svg width="24" height="24" xmlns="http://www.w3.org/2000/svg">
  <rect width="24" height="24" stroke="none" fill="ghostwhite"/>
  <path d="M0,23 2,23 4,22 8,21 10,20 12,18 14,15 16,11 18,9 20,6 22,4 24,3"
        stroke="#444" stroke-width="2" fill="none"
        stroke-linejoin="round" stroke-linecap="round"/>
  <path d="M0,24 0,23 2,23 4,22 8,21 10,20 12,18 14,15 16,11 18,9 20,6 22,4 24,3 24,24"
        stroke="none" fill="darkseagreen"
        stroke-linejoin="round"/>
  <path d="M10,4 q-1,-1 -3,-1 q-3,0 -3,5 q0,5 3,5 q2,0 3,-1
            m-7,-5 5,0 m-5,2 5,0"
        stroke="#444" stroke-width="1" fill="none"
        stroke-linejoin="round" stroke-linecap="round"/>
  <rect width="8" height="2" x="15" y="17"
        stroke="none" fill="black"/>
  <rect width="8" height="2" x="15" y="19"
        stroke="none" fill="crimson"/>
  <rect width="8" height="2" x="15" y="21"
        stroke="none" fill="gold"/>
</svg>
