<svg width="24" height="24" xmlns="http://www.w3.org/2000/svg">
  <path d="M0,23 4,22 8,20 12,17 16,12 20,8 22,5 24,3"
        stroke="#444" stroke-width="2" fill="none"
        stroke-linejoin="round" stroke-linecap="round"/>
  <path d="M0,24 0,23 4,22 8,20 12,17 16,12 20,8 22,5 24,3 24,24"
        stroke="none" fill="darkseagreen"
        stroke-linejoin="round"/>
  <path d="M9,5 q-1,-2 -3,-2 q-3,0 -3,2 q0,2 3,3 q3,1 3,3 q0,3 -3,3 q-2,0 -3,-2
            m3,-10 0,13"
        stroke="#444" stroke-width="1" fill="none"
        stroke-linejoin="round" stroke-linecap="round"/>
</svg>
