<svg width="24" height="24" xmlns="http://www.w3.org/2000/svg">
  <rect width="24" height="24" stroke="none" fill="ghostwhite"/>
  <path d="M0,23 2,23 4,22 8,21 10,20 12,18 14,15 16,11 18,9 20,6 22,4 24,3"
        stroke="#444" stroke-width="2" fill="none"
        stroke-linejoin="round" stroke-linecap="round"/>
  <path d="M0,24 0,23 2,23 4,22 8,21 10,20 12,18 14,15 16,11 18,9 20,6 22,4 24,3 24,24"
        stroke="none" fill="darkseagreen"
        stroke-linejoin="round"/>
  <path d="M9,6 q-1,-2 -3,-2 q-3,0 -3,2 q0,2 3,3 q3,1 3,3 q0,3 -3,3 q-2,0 -3,-2
            m3,-10 0,13"
        stroke="#444" stroke-width="1" fill="none"
        stroke-linejoin="round" stroke-linecap="round"/>
  <g transform="translate(13,18) scale(0.01)">
      <clipPath id="u"><path d="M0,0 h500 v250 h-500 z"/></clipPath>
      <rect width="1000" height="500" fill="#00008b"/>
      <g clip-path="url(#u)">
      <path d="M0,0 500,250 M500,0 0,250" stroke="#fff" stroke-width="50"/>
      <path d="M-4,6 246,131 M500,-8 250,117 M504,244 254,119 M0,258 250,133" stroke="#f00" stroke-width="17"/>
      </g>
      <path d="M250,0 V250 M0,125 H500" stroke="#fff" stroke-width="84"/>
      <path d="M250,0 V250 M0,125 H500" stroke="#f00" stroke-width="50"/>
      <g fill="#fff" transform="scale(0.1)">
      <path d="M0,-360 156,324 -281,-224 351,80 -351,80 281,-224 -156,324 z" transform="translate(2500,3750) scale(2.1)"/>
      <path d="M0,-360 156,324 -281,-224 351,80 -351,80 281,-224 -156,324 z" transform="translate(7500,4167)"/>
      <path d="M0,-360 156,324 -281,-224 351,80 -351,80 281,-224 -156,324 z" transform="translate(6250,2188)"/>
      <path d="M0,-360 156,324 -281,-224 351,80 -351,80 281,-224 -156,324 z" transform="translate(7500,833)"/>
      <path d="M0,-360 156,324 -281,-224 351,80 -351,80 281,-224 -156,324 z" transform="translate(8611,1854)"/>
      <path d="M0,-210 123,170 -200,-65 200,-65 -123,170 z" transform="translate(8000,2708)"/>
      </g>
  </g>
</svg>
