<svg width="24" height="24" xmlns="http://www.w3.org/2000/svg">
  <rect width="24" height="24" stroke="none" fill="ghostwhite"/>
  <path d="M0,23 4,22 8,20 12,17 16,15 20,8 22,5 24,3"
        stroke="#444" stroke-width="2" fill="none"
        stroke-linejoin="round" stroke-linecap="round"/>
  <path d="M0,24 0,23 4,22 8,20 12,17 16,15 20,8 22,5 24,3 24,24"
        stroke="none" fill="darkseagreen"
        stroke-linejoin="round"/>
  <path d="M3,12 l0,-8 3,0 c3,0 3,4 0,4 l-3,0
           m2,0 q1,0 3,4
           M15,6 q-1,-1 -2,-1 q-3,0 -3,1.5 q0,1.5 2.5,1.5 t2.5,1.5 q0,1.5 -2.5,1.5 q-2,0 -3,-1
           m3,-7 0,10"
        stroke="#444" stroke-width="1" fill="none"
        stroke-linejoin="miter"/>
</svg>
