<svg width="24" height="24" xmlns="http://www.w3.org/2000/svg">
  <rect width="24" height="24" stroke="none" fill="ghostwhite"/>
  <path d="M0,23 2,23 4,22 8,21 10,20 12,18 14,15 16,11 18,9 20,6 22,4 24,3"
        stroke="#444" stroke-width="2" fill="none"
        stroke-linejoin="round" stroke-linecap="round"/>
  <path d="M0,24 0,23 2,23 4,22 8,21 10,20 12,18 14,15 16,11 18,9 20,6 22,4 24,3 24,24"
        stroke="none" fill="darkseagreen"
        stroke-linejoin="round"/>
  <path d="M9,6 q-1,-2 -3,-2 q-3,0 -3,2 q0,2 3,3 q3,1 3,3 q0,3 -3,3 q-2,0 -3,-2
            m3,-10 0,13"
        stroke="#444" stroke-width="1" fill="none"
        stroke-linejoin="round" stroke-linecap="round"/>
  <rect width="2" height="6" x="15" y="17"
        stroke="none" fill="red"/>
  <rect width="4" height="6" x="17" y="17"
        stroke="none" fill="white"/>
  <rect width="2" height="6" x="21" y="17"
        stroke="none" fill="red"/>
  <g transform="translate(17,18) scale(0.04)">
    <rect width="100" height="100" stroke="none" fill="none"/>
    <path d="M48,100 49,76 25,80 28,71 4,51 10,48 6,33 20,36 23,28 36,41 32,12 41,17 50,0
              59,17 68,12 64,41 77,28 80,36 94,33 90,48 96,51 72,71 75,80 51,76 52,100"
          stroke="none" fill="red"/>
  </g>
</svg>
