<svg width="24" height="24" xmlns="http://www.w3.org/2000/svg">
  <rect width="24" height="24" stroke="none" fill="ghostwhite"/>
  <path d="M0,23 2,23 4,22 8,21 10,20 12,18 14,15 16,11 18,9 20,6 22,4 24,3"
        stroke="#444" stroke-width="2" fill="none"
        stroke-linejoin="round" stroke-linecap="round"/>
  <path d="M0,24 0,23 2,23 4,22 8,21 10,20 12,18 14,15 16,11 18,9 20,6 22,4 24,3 24,24"
        stroke="none" fill="darkseagreen"
        stroke-linejoin="round"/>
  <path d="M4.5,3 l6,0
            m-7.5,3 l9,0
            m-6,0 c0,5 0,6 -3,7
            m5.5,-7 l0,4 c0,3 0,3 2,3 c1.5,0 1.5,0 1.8,-1.5"
        stroke="#444" stroke-width="1" fill="none"
        stroke-linejoin="miter" stroke-linecap="square"/>
</svg>
