<svg width="24" height="24" xmlns="http://www.w3.org/2000/svg">
  <rect width="24" height="24" stroke="none" fill="ghostwhite"/>
  <path d="M0,23 2,23 4,22 8,21 10,20 12,18 14,15 16,11 18,9 20,6 22,4 24,3"
        stroke="#444" stroke-width="2" fill="none"
        stroke-linejoin="round" stroke-linecap="round"/>
  <path d="M0,24 0,23 2,23 4,22 8,21 10,20 12,18 14,15 16,11 18,9 20,6 22,4 24,3 24,24"
        stroke="none" fill="darkseagreen"
        stroke-linejoin="round"/>
  <path d="M8,4 q-0.5,-1 -2,-1 q-2,0 -2,3 c0,5 0,6 -1,7
            l4.5,0 q1.5,0 2,-1"
        stroke="#444" stroke-width="1" fill="none"
        stroke-linejoin="bevel" stroke-linecap="square"/>
  <path d="M3,8 l3.5,0"
        stroke="#444" stroke-width="0.8" fill="none"
        stroke-linejoin="bevel" stroke-linecap="square"/>
</svg>
