<svg width="24" height="24" xmlns="http://www.w3.org/2000/svg">
  <rect width="24" height="24" stroke="none" fill="ghostwhite"/>
  <path d="M0,23 2,23 4,22 8,21 10,20 12,18 14,15 16,11 18,9 20,6 22,4 24,3"
        stroke="#444" stroke-width="2" fill="none"
        stroke-linejoin="round" stroke-linecap="round"/>
  <path d="M0,24 0,23 2,23 4,22 8,21 10,20 12,18 14,15 16,11 18,9 20,6 22,4 24,3 24,24"
        stroke="none" fill="darkseagreen"
        stroke-linejoin="round"/>
  <path d="M3,11 l0,-8 3,0 c3,0 3,4 0,4 l-3,0 m1,0.5 l4,3.5
            M9,14 l0,-7 2,0 c2,0 2,4 0,4 l-2,0"
        stroke="#444" stroke-width="1" fill="none"
        stroke-linejoin="miter" stroke-linecap="square"/>
</svg>
