<svg width="24" height="24" xmlns="http://www.w3.org/2000/svg">
  <rect width="24" height="24" stroke="none" fill="ghostwhite"/>
  <path d="M0,23 2,23 4,22 8,21 10,20 12,18 14,15 16,11 18,9 20,6 22,4 24,3"
        stroke="#444" stroke-width="2" fill="none"
        stroke-linejoin="round" stroke-linecap="round"/>
  <path d="M0,24 0,23 2,23 4,22 8,21 10,20 12,18 14,15 16,11 18,9 20,6 22,4 24,3 24,24"
        stroke="none" fill="darkseagreen"
        stroke-linejoin="round"/>
  <path d="M9,6 q-1,-2 -3,-2 q-3,0 -3,2 q0,2 3,3 q3,1 3,3 q0,3 -3,3 q-2,0 -3,-2
            m3,-10 0,13"
        stroke="#444" stroke-width="1" fill="none"
        stroke-linejoin="round" stroke-linecap="round"/>
  <rect width="3" height="3" x="15" y="17"
        stroke="none" fill="mediumblue"/>
  <rect width="5" height="3" x="18" y="17"
        stroke="none" fill="white"/>
  <rect width="8" height="3" x="15" y="20"
        stroke="none" fill="red"/>
  <g transform="translate(15.75,17.75) scale(0.015)">
    <rect width="100" height="100" stroke="none" fill="none"/>
    <path d="M50,0 81,95 0,36 100,36 19,95 z"
          stroke="none" fill="white"/>
  </g>
</svg>
