<svg width="24" height="24" xmlns="http://www.w3.org/2000/svg">
  <rect width="24" height="24" stroke="none" fill="ghostwhite"/>
  <path d="M0,23 4,22 8,20 12,17 16,15 20,8 22,5 24,3"
        stroke="#444" stroke-width="2" fill="none"
        stroke-linejoin="round" stroke-linecap="round"/>
  <path d="M0,24 0,23 4,22 8,20 12,17 16,15 20,8 22,5 24,3 24,24"
        stroke="none" fill="darkseagreen"
        stroke-linejoin="round"/>
  <path d="M15,3 l0,5  c0,1 0,2.5 -2,3 s-1.8,-1 -1.7,-1.4
            M8.3,3 l0,5  c0,1 0,2.5 -2,3 s-1.8,-1 -1.7,-1.4"
        stroke="#444" stroke-width="1" fill="none"
        stroke-linejoin="round" stroke-linecap="square"/>
  <path d="M9.7,9.7 l0,0
            M3,9.7 l0,0"
        stroke="#444" stroke-width="0.8" fill="none"
        stroke-linejoin="round" stroke-linecap="round"/>
</svg>
