<svg width="24" height="24" xmlns="http://www.w3.org/2000/svg">
  <rect width="24" height="24" stroke="none" fill="ghostwhite"/>
  <path d="M0,23 4,22 8,20 12,17 16,15 20,8 22,5 24,3"
        stroke="#444" stroke-width="2" fill="none"
        stroke-linejoin="round" stroke-linecap="round"/>
  <path d="M0,24 0,23 4,22 8,20 12,17 16,15 20,8 22,5 24,3 24,24"
        stroke="none" fill="darkseagreen"
        stroke-linejoin="round"/>
  <path d="M3,13 l0,-10 3,0 c3,0 3,5 0,5 l-3,0 m1,0 l4,5
            M11.5,8.5 q-0.5,-0.5 -1.5,-0.5 t-1,1 t1.5,1.5 t1,1.5 t-1.5,1 t-2.5,-0.5"
        stroke="#444" stroke-width="1" fill="none"
        stroke-linejoin="round"/>
</svg>
