<svg width="24" height="24" xmlns="http://www.w3.org/2000/svg">
  <rect width="24" height="24" stroke="none" fill="ghostwhite"/>
  <path d="M0,23 2,23 4,22 8,21 10,20 12,18 14,15 16,11 18,9 20,6 22,4 24,3"
        stroke="#444" stroke-width="2" fill="none"
        stroke-linejoin="round" stroke-linecap="round"/>
  <path d="M0,24 0,23 2,23 4,22 8,21 10,20 12,18 14,15 16,11 18,9 20,6 22,4 24,3 24,24"
        stroke="none" fill="darkseagreen"
        stroke-linejoin="round"/>
  <path d="M14.1,6.5 c0.6,1.2 0,3.9 -3,4.3
            M8.5,5.1 c0.6,1.6 -2.6,1.6 -2.6,0 c0,-2.1 2.5,-1.3 2.6,0
            s0,4.5 -3,5.2 s-3.5,-1.5 -2.6,-3.7"
        stroke="#444" stroke-width="1" fill="none"
        stroke-linejoin="round" stroke-linecap="square"/>
  <path d="M10.3,8.2 l0,0
            M7.6,2.2 l0,0
            M6.2,2.2 l0,0"
        stroke="#444" stroke-width="0.8" fill="none"
        stroke-linejoin="round" stroke-linecap="round"/>
</svg>
